<mxfile host="app.diagrams.net" agent="Mozilla/5.0 (Windows NT 10.0; Win64; x64) AppleWebKit/537.36 (KHTML, like Gecko) Chrome/136.0.0.0 Safari/537.36" version="26.2.14">
  <diagram name="Page-1" id="PsVkEHSRD9c45k8ERxu_">
    <mxGraphModel grid="0" page="1" gridSize="10" guides="1" tooltips="1" connect="1" arrows="1" fold="1" pageScale="1" pageWidth="3300" pageHeight="4681" math="0" shadow="0">
      <root>
        <mxCell id="0" />
        <mxCell id="1" parent="0" />
        <mxCell id="cqDVJU0vCWFaIyc4hlk9-6" value="" style="edgeStyle=orthogonalEdgeStyle;rounded=0;orthogonalLoop=1;jettySize=auto;html=1;strokeColor=#788AA3;fontColor=default;fillColor=#B2C9AB;exitX=1;exitY=0.5;exitDx=0;exitDy=0;endArrow=none;startFill=1;startArrow=classic;strokeWidth=2;labelBackgroundColor=none;" edge="1" parent="1" source="SP53cv1QxzxyTNkhc1Kl-5" target="SP53cv1QxzxyTNkhc1Kl-84">
          <mxGeometry relative="1" as="geometry" />
        </mxCell>
        <mxCell id="cqDVJU0vCWFaIyc4hlk9-7" value="" style="edgeStyle=orthogonalEdgeStyle;rounded=0;orthogonalLoop=1;jettySize=auto;html=1;strokeColor=#788AA3;fontColor=default;fillColor=#B2C9AB;shape=link;strokeWidth=1;labelBackgroundColor=none;" edge="1" parent="1" target="SP53cv1QxzxyTNkhc1Kl-84">
          <mxGeometry relative="1" as="geometry">
            <mxPoint x="-1151" y="533" as="sourcePoint" />
          </mxGeometry>
        </mxCell>
        <mxCell id="SP53cv1QxzxyTNkhc1Kl-1" value="Festival" style="swimlane;fontStyle=0;childLayout=stackLayout;horizontal=1;startSize=30;horizontalStack=0;resizeParent=1;resizeParentMax=0;resizeLast=0;collapsible=1;marginBottom=0;whiteSpace=wrap;html=1;labelBackgroundColor=none;fillColor=#B2C9AB;strokeColor=#788AA3;fontColor=#46495D;" vertex="1" parent="1">
          <mxGeometry x="-1323" y="398" width="164" height="180" as="geometry" />
        </mxCell>
        <mxCell id="SP53cv1QxzxyTNkhc1Kl-2" value="fest_ID&lt;div&gt;&lt;br&gt;&lt;/div&gt;" style="text;strokeColor=none;fillColor=none;align=left;verticalAlign=middle;spacingLeft=4;spacingRight=4;overflow=hidden;points=[[0,0.5],[1,0.5]];portConstraint=eastwest;rotatable=0;whiteSpace=wrap;html=1;labelBackgroundColor=none;fontColor=#46495D;" vertex="1" parent="SP53cv1QxzxyTNkhc1Kl-1">
          <mxGeometry y="30" width="164" height="30" as="geometry" />
        </mxCell>
        <mxCell id="SP53cv1QxzxyTNkhc1Kl-3" value="Year" style="text;strokeColor=none;fillColor=none;align=left;verticalAlign=middle;spacingLeft=4;spacingRight=4;overflow=hidden;points=[[0,0.5],[1,0.5]];portConstraint=eastwest;rotatable=0;whiteSpace=wrap;html=1;labelBackgroundColor=none;fontColor=#46495D;" vertex="1" parent="SP53cv1QxzxyTNkhc1Kl-1">
          <mxGeometry y="60" width="164" height="30" as="geometry" />
        </mxCell>
        <mxCell id="SP53cv1QxzxyTNkhc1Kl-4" value="Start_date" style="text;strokeColor=none;fillColor=none;align=left;verticalAlign=middle;spacingLeft=4;spacingRight=4;overflow=hidden;points=[[0,0.5],[1,0.5]];portConstraint=eastwest;rotatable=0;whiteSpace=wrap;html=1;labelBackgroundColor=none;fontColor=#46495D;" vertex="1" parent="SP53cv1QxzxyTNkhc1Kl-1">
          <mxGeometry y="90" width="164" height="30" as="geometry" />
        </mxCell>
        <mxCell id="SP53cv1QxzxyTNkhc1Kl-5" value="End_date" style="text;strokeColor=none;fillColor=none;align=left;verticalAlign=middle;spacingLeft=4;spacingRight=4;overflow=hidden;points=[[0,0.5],[1,0.5]];portConstraint=eastwest;rotatable=0;whiteSpace=wrap;html=1;labelBackgroundColor=none;fontColor=#46495D;" vertex="1" parent="SP53cv1QxzxyTNkhc1Kl-1">
          <mxGeometry y="120" width="164" height="30" as="geometry" />
        </mxCell>
        <mxCell id="SP53cv1QxzxyTNkhc1Kl-6" value="*/Daily_duration" style="text;strokeColor=none;fillColor=none;align=left;verticalAlign=middle;spacingLeft=4;spacingRight=4;overflow=hidden;points=[[0,0.5],[1,0.5]];portConstraint=eastwest;rotatable=0;whiteSpace=wrap;html=1;labelBackgroundColor=none;fontColor=#46495D;" vertex="1" parent="SP53cv1QxzxyTNkhc1Kl-1">
          <mxGeometry y="150" width="164" height="30" as="geometry" />
        </mxCell>
        <mxCell id="SP53cv1QxzxyTNkhc1Kl-7" value="Location" style="swimlane;fontStyle=0;childLayout=stackLayout;horizontal=1;startSize=30;horizontalStack=0;resizeParent=1;resizeParentMax=0;resizeLast=0;collapsible=1;marginBottom=0;whiteSpace=wrap;html=1;labelBackgroundColor=none;fillColor=#B2C9AB;strokeColor=#788AA3;fontColor=#46495D;" vertex="1" parent="1">
          <mxGeometry x="-835" y="398" width="209" height="210" as="geometry" />
        </mxCell>
        <mxCell id="SP53cv1QxzxyTNkhc1Kl-8" value="Loc_ID" style="text;strokeColor=none;fillColor=none;align=left;verticalAlign=middle;spacingLeft=4;spacingRight=4;overflow=hidden;points=[[0,0.5],[1,0.5]];portConstraint=eastwest;rotatable=0;whiteSpace=wrap;html=1;labelBackgroundColor=none;fontColor=#46495D;" vertex="1" parent="SP53cv1QxzxyTNkhc1Kl-7">
          <mxGeometry y="30" width="209" height="30" as="geometry" />
        </mxCell>
        <mxCell id="SP53cv1QxzxyTNkhc1Kl-9" value="Address" style="text;strokeColor=none;fillColor=none;align=left;verticalAlign=middle;spacingLeft=4;spacingRight=4;overflow=hidden;points=[[0,0.5],[1,0.5]];portConstraint=eastwest;rotatable=0;whiteSpace=wrap;html=1;labelBackgroundColor=none;fontColor=#46495D;" vertex="1" parent="SP53cv1QxzxyTNkhc1Kl-7">
          <mxGeometry y="60" width="209" height="30" as="geometry" />
        </mxCell>
        <mxCell id="SP53cv1QxzxyTNkhc1Kl-10" value="Coordinates" style="text;strokeColor=none;fillColor=none;align=left;verticalAlign=middle;spacingLeft=4;spacingRight=4;overflow=hidden;points=[[0,0.5],[1,0.5]];portConstraint=eastwest;rotatable=0;whiteSpace=wrap;html=1;labelBackgroundColor=none;fontColor=#46495D;" vertex="1" parent="SP53cv1QxzxyTNkhc1Kl-7">
          <mxGeometry y="90" width="209" height="30" as="geometry" />
        </mxCell>
        <mxCell id="SP53cv1QxzxyTNkhc1Kl-37" value="Continent" style="text;strokeColor=none;fillColor=none;align=left;verticalAlign=middle;spacingLeft=4;spacingRight=4;overflow=hidden;points=[[0,0.5],[1,0.5]];portConstraint=eastwest;rotatable=0;whiteSpace=wrap;html=1;labelBackgroundColor=none;fontColor=#46495D;" vertex="1" parent="SP53cv1QxzxyTNkhc1Kl-7">
          <mxGeometry y="120" width="209" height="30" as="geometry" />
        </mxCell>
        <mxCell id="SP53cv1QxzxyTNkhc1Kl-35" value="City" style="text;strokeColor=none;fillColor=none;align=left;verticalAlign=middle;spacingLeft=4;spacingRight=4;overflow=hidden;points=[[0,0.5],[1,0.5]];portConstraint=eastwest;rotatable=0;whiteSpace=wrap;html=1;labelBackgroundColor=none;fontColor=#46495D;" vertex="1" parent="SP53cv1QxzxyTNkhc1Kl-7">
          <mxGeometry y="150" width="209" height="30" as="geometry" />
        </mxCell>
        <mxCell id="SP53cv1QxzxyTNkhc1Kl-39" value="Country" style="text;strokeColor=none;fillColor=none;align=left;verticalAlign=middle;spacingLeft=4;spacingRight=4;overflow=hidden;points=[[0,0.5],[1,0.5]];portConstraint=eastwest;rotatable=0;whiteSpace=wrap;html=1;labelBackgroundColor=none;fontColor=#46495D;" vertex="1" parent="SP53cv1QxzxyTNkhc1Kl-7">
          <mxGeometry y="180" width="209" height="30" as="geometry" />
        </mxCell>
        <mxCell id="btnhvG5vjyK7680xrveF-5" value="" style="edgeStyle=orthogonalEdgeStyle;rounded=0;orthogonalLoop=1;jettySize=auto;html=1;fillColor=#B2C9AB;strokeColor=#788AA3;labelBackgroundColor=none;fontColor=default;endArrow=none;startFill=0;strokeWidth=2;shape=link;" edge="1" parent="1" source="SP53cv1QxzxyTNkhc1Kl-93" target="SP53cv1QxzxyTNkhc1Kl-11">
          <mxGeometry relative="1" as="geometry" />
        </mxCell>
        <mxCell id="SP53cv1QxzxyTNkhc1Kl-11" value="Stage" style="swimlane;fontStyle=0;childLayout=stackLayout;horizontal=1;startSize=31;horizontalStack=0;resizeParent=1;resizeParentMax=0;resizeLast=0;collapsible=1;marginBottom=0;whiteSpace=wrap;html=1;labelBackgroundColor=none;fillColor=#B2C9AB;strokeColor=#788AA3;fontColor=#46495D;" vertex="1" parent="1">
          <mxGeometry x="-964" y="761" width="140" height="149" as="geometry">
            <mxRectangle x="-591" y="394" width="66" height="30" as="alternateBounds" />
          </mxGeometry>
        </mxCell>
        <mxCell id="SP53cv1QxzxyTNkhc1Kl-12" value="Stage_ID" style="text;strokeColor=none;fillColor=none;align=left;verticalAlign=middle;spacingLeft=4;spacingRight=4;overflow=hidden;points=[[0,0.5],[1,0.5]];portConstraint=eastwest;rotatable=0;whiteSpace=wrap;html=1;labelBackgroundColor=none;fontColor=#46495D;" vertex="1" parent="SP53cv1QxzxyTNkhc1Kl-11">
          <mxGeometry y="31" width="140" height="30" as="geometry" />
        </mxCell>
        <mxCell id="btnhvG5vjyK7680xrveF-3" value="Stage_Desc" style="text;strokeColor=none;fillColor=none;align=left;verticalAlign=middle;spacingLeft=4;spacingRight=4;overflow=hidden;points=[[0,0.5],[1,0.5]];portConstraint=eastwest;rotatable=0;whiteSpace=wrap;html=1;labelBackgroundColor=none;fontColor=#46495D;" vertex="1" parent="SP53cv1QxzxyTNkhc1Kl-11">
          <mxGeometry y="61" width="140" height="30" as="geometry" />
        </mxCell>
        <mxCell id="btnhvG5vjyK7680xrveF-4" value="Stage_Desc" style="text;strokeColor=none;fillColor=none;align=left;verticalAlign=middle;spacingLeft=4;spacingRight=4;overflow=hidden;points=[[0,0.5],[1,0.5]];portConstraint=eastwest;rotatable=0;whiteSpace=wrap;html=1;labelBackgroundColor=none;fontColor=#46495D;" vertex="1" parent="SP53cv1QxzxyTNkhc1Kl-11">
          <mxGeometry y="91" width="140" height="30" as="geometry" />
        </mxCell>
        <mxCell id="SP53cv1QxzxyTNkhc1Kl-13" value="Max_Capacity" style="text;strokeColor=none;fillColor=none;align=left;verticalAlign=middle;spacingLeft=4;spacingRight=4;overflow=hidden;points=[[0,0.5],[1,0.5]];portConstraint=eastwest;rotatable=0;whiteSpace=wrap;html=1;labelBackgroundColor=none;fontColor=#46495D;" vertex="1" parent="SP53cv1QxzxyTNkhc1Kl-11">
          <mxGeometry y="121" width="140" height="28" as="geometry" />
        </mxCell>
        <mxCell id="SP53cv1QxzxyTNkhc1Kl-15" value="Equipment" style="swimlane;fontStyle=0;childLayout=stackLayout;horizontal=1;startSize=30;horizontalStack=0;resizeParent=1;resizeParentMax=0;resizeLast=0;collapsible=1;marginBottom=0;whiteSpace=wrap;html=1;labelBackgroundColor=none;fillColor=#B2C9AB;strokeColor=#788AA3;fontColor=#46495D;" vertex="1" parent="1">
          <mxGeometry x="-529" y="790.5" width="140" height="90" as="geometry">
            <mxRectangle x="350" y="240" width="60" height="30" as="alternateBounds" />
          </mxGeometry>
        </mxCell>
        <mxCell id="SP53cv1QxzxyTNkhc1Kl-16" value="Eq_ID" style="text;strokeColor=none;fillColor=none;align=left;verticalAlign=middle;spacingLeft=4;spacingRight=4;overflow=hidden;points=[[0,0.5],[1,0.5]];portConstraint=eastwest;rotatable=0;whiteSpace=wrap;html=1;labelBackgroundColor=none;fontColor=#46495D;" vertex="1" parent="SP53cv1QxzxyTNkhc1Kl-15">
          <mxGeometry y="30" width="140" height="30" as="geometry" />
        </mxCell>
        <mxCell id="SP53cv1QxzxyTNkhc1Kl-17" value="Type" style="text;strokeColor=none;fillColor=none;align=left;verticalAlign=middle;spacingLeft=4;spacingRight=4;overflow=hidden;points=[[0,0.5],[1,0.5]];portConstraint=eastwest;rotatable=0;whiteSpace=wrap;html=1;labelBackgroundColor=none;fontColor=#46495D;" vertex="1" parent="SP53cv1QxzxyTNkhc1Kl-15">
          <mxGeometry y="60" width="140" height="30" as="geometry" />
        </mxCell>
        <mxCell id="cqDVJU0vCWFaIyc4hlk9-4" value="" style="edgeStyle=orthogonalEdgeStyle;rounded=0;orthogonalLoop=1;jettySize=auto;html=1;strokeColor=#788AA3;fontColor=default;fillColor=#B2C9AB;endArrow=none;startFill=0;strokeWidth=2;shape=link;labelBackgroundColor=none;" edge="1" parent="1" source="SP53cv1QxzxyTNkhc1Kl-19" target="SP53cv1QxzxyTNkhc1Kl-87">
          <mxGeometry relative="1" as="geometry">
            <Array as="points">
              <mxPoint x="-1204" y="846" />
              <mxPoint x="-1204" y="846" />
            </Array>
          </mxGeometry>
        </mxCell>
        <mxCell id="SP53cv1QxzxyTNkhc1Kl-19" value="Event" style="swimlane;fontStyle=0;childLayout=stackLayout;horizontal=1;startSize=30;horizontalStack=0;resizeParent=1;resizeParentMax=0;resizeLast=0;collapsible=1;marginBottom=0;whiteSpace=wrap;html=1;labelBackgroundColor=none;fillColor=#B2C9AB;strokeColor=#788AA3;fontColor=#46495D;" vertex="1" parent="1">
          <mxGeometry x="-1274" y="875.5" width="140" height="180" as="geometry" />
        </mxCell>
        <mxCell id="VnvgGpq_WmmBBipv7G0Y-18" value="Event_ID" style="text;strokeColor=none;fillColor=none;align=left;verticalAlign=middle;spacingLeft=4;spacingRight=4;overflow=hidden;points=[[0,0.5],[1,0.5]];portConstraint=eastwest;rotatable=0;whiteSpace=wrap;html=1;labelBackgroundColor=none;fontColor=#46495D;" vertex="1" parent="SP53cv1QxzxyTNkhc1Kl-19">
          <mxGeometry y="30" width="140" height="30" as="geometry" />
        </mxCell>
        <mxCell id="VnvgGpq_WmmBBipv7G0Y-17" value="Start_time" style="text;strokeColor=none;fillColor=none;align=left;verticalAlign=middle;spacingLeft=4;spacingRight=4;overflow=hidden;points=[[0,0.5],[1,0.5]];portConstraint=eastwest;rotatable=0;whiteSpace=wrap;html=1;labelBackgroundColor=none;fontColor=#46495D;" vertex="1" parent="SP53cv1QxzxyTNkhc1Kl-19">
          <mxGeometry y="60" width="140" height="30" as="geometry" />
        </mxCell>
        <mxCell id="SP53cv1QxzxyTNkhc1Kl-20" value="End_time" style="text;strokeColor=none;fillColor=none;align=left;verticalAlign=middle;spacingLeft=4;spacingRight=4;overflow=hidden;points=[[0,0.5],[1,0.5]];portConstraint=eastwest;rotatable=0;whiteSpace=wrap;html=1;labelBackgroundColor=none;fontColor=#46495D;" vertex="1" parent="SP53cv1QxzxyTNkhc1Kl-19">
          <mxGeometry y="90" width="140" height="30" as="geometry" />
        </mxCell>
        <mxCell id="SP53cv1QxzxyTNkhc1Kl-22" value="Name" style="text;strokeColor=none;fillColor=none;align=left;verticalAlign=middle;spacingLeft=4;spacingRight=4;overflow=hidden;points=[[0,0.5],[1,0.5]];portConstraint=eastwest;rotatable=0;whiteSpace=wrap;html=1;labelBackgroundColor=none;fontColor=#46495D;" vertex="1" parent="SP53cv1QxzxyTNkhc1Kl-19">
          <mxGeometry y="120" width="140" height="30" as="geometry" />
        </mxCell>
        <mxCell id="SP53cv1QxzxyTNkhc1Kl-40" value="Description" style="text;strokeColor=none;fillColor=none;align=left;verticalAlign=middle;spacingLeft=4;spacingRight=4;overflow=hidden;points=[[0,0.5],[1,0.5]];portConstraint=eastwest;rotatable=0;whiteSpace=wrap;html=1;labelBackgroundColor=none;fontColor=#46495D;" vertex="1" parent="SP53cv1QxzxyTNkhc1Kl-19">
          <mxGeometry y="150" width="140" height="30" as="geometry" />
        </mxCell>
        <mxCell id="SP53cv1QxzxyTNkhc1Kl-23" value="Performance" style="swimlane;fontStyle=0;childLayout=stackLayout;horizontal=1;startSize=30;horizontalStack=0;resizeParent=1;resizeParentMax=0;resizeLast=0;collapsible=1;marginBottom=0;whiteSpace=wrap;html=1;labelBackgroundColor=none;fillColor=#B2C9AB;strokeColor=#788AA3;fontColor=#46495D;" vertex="1" parent="1">
          <mxGeometry x="-1473" y="1114" width="140" height="180" as="geometry" />
        </mxCell>
        <mxCell id="SP53cv1QxzxyTNkhc1Kl-25" value="Type" style="text;strokeColor=none;fillColor=none;align=left;verticalAlign=middle;spacingLeft=4;spacingRight=4;overflow=hidden;points=[[0,0.5],[1,0.5]];portConstraint=eastwest;rotatable=0;whiteSpace=wrap;html=1;labelBackgroundColor=none;fontColor=#46495D;" vertex="1" parent="SP53cv1QxzxyTNkhc1Kl-23">
          <mxGeometry y="30" width="140" height="30" as="geometry" />
        </mxCell>
        <mxCell id="SP53cv1QxzxyTNkhc1Kl-24" value="Perform_ID" style="text;strokeColor=none;fillColor=none;align=left;verticalAlign=middle;spacingLeft=4;spacingRight=4;overflow=hidden;points=[[0,0.5],[1,0.5]];portConstraint=eastwest;rotatable=0;whiteSpace=wrap;html=1;labelBackgroundColor=none;fontColor=#46495D;" vertex="1" parent="SP53cv1QxzxyTNkhc1Kl-23">
          <mxGeometry y="60" width="140" height="30" as="geometry" />
        </mxCell>
        <mxCell id="SP53cv1QxzxyTNkhc1Kl-26" value="Start_time" style="text;strokeColor=none;fillColor=none;align=left;verticalAlign=middle;spacingLeft=4;spacingRight=4;overflow=hidden;points=[[0,0.5],[1,0.5]];portConstraint=eastwest;rotatable=0;whiteSpace=wrap;html=1;labelBackgroundColor=none;fontColor=#46495D;" vertex="1" parent="SP53cv1QxzxyTNkhc1Kl-23">
          <mxGeometry y="90" width="140" height="30" as="geometry" />
        </mxCell>
        <mxCell id="SP53cv1QxzxyTNkhc1Kl-42" value="End_time" style="text;strokeColor=none;fillColor=none;align=left;verticalAlign=middle;spacingLeft=4;spacingRight=4;overflow=hidden;points=[[0,0.5],[1,0.5]];portConstraint=eastwest;rotatable=0;whiteSpace=wrap;html=1;labelBackgroundColor=none;fontColor=#46495D;" vertex="1" parent="SP53cv1QxzxyTNkhc1Kl-23">
          <mxGeometry y="120" width="140" height="30" as="geometry" />
        </mxCell>
        <mxCell id="SP53cv1QxzxyTNkhc1Kl-43" value="Break_duration" style="text;strokeColor=none;fillColor=none;align=left;verticalAlign=middle;spacingLeft=4;spacingRight=4;overflow=hidden;points=[[0,0.5],[1,0.5]];portConstraint=eastwest;rotatable=0;whiteSpace=wrap;html=1;labelBackgroundColor=none;fontColor=#46495D;" vertex="1" parent="SP53cv1QxzxyTNkhc1Kl-23">
          <mxGeometry y="150" width="140" height="30" as="geometry" />
        </mxCell>
        <mxCell id="HEQW6fZJlT7YWTPAoVsE-4" style="edgeStyle=orthogonalEdgeStyle;rounded=0;orthogonalLoop=1;jettySize=auto;html=1;entryX=1;entryY=0.5;entryDx=0;entryDy=0;fillColor=#B2C9AB;strokeColor=#788AA3;endArrow=none;startFill=0;labelBackgroundColor=none;fontColor=default;" edge="1" parent="1" source="SP53cv1QxzxyTNkhc1Kl-31" target="SP53cv1QxzxyTNkhc1Kl-104">
          <mxGeometry relative="1" as="geometry" />
        </mxCell>
        <mxCell id="SP53cv1QxzxyTNkhc1Kl-31" value="Artist" style="swimlane;fontStyle=0;childLayout=stackLayout;horizontal=1;startSize=30;horizontalStack=0;resizeParent=1;resizeParentMax=0;resizeLast=0;collapsible=1;marginBottom=0;whiteSpace=wrap;html=1;labelBackgroundColor=none;fillColor=#B2C9AB;strokeColor=#788AA3;fontColor=#46495D;" vertex="1" parent="1">
          <mxGeometry x="-824" y="1114" width="140" height="270" as="geometry" />
        </mxCell>
        <mxCell id="SP53cv1QxzxyTNkhc1Kl-29" value="Artist_ID" style="text;strokeColor=none;fillColor=none;align=left;verticalAlign=middle;spacingLeft=4;spacingRight=4;overflow=hidden;points=[[0,0.5],[1,0.5]];portConstraint=eastwest;rotatable=0;whiteSpace=wrap;html=1;labelBackgroundColor=none;fontColor=#46495D;" vertex="1" parent="SP53cv1QxzxyTNkhc1Kl-31">
          <mxGeometry y="30" width="140" height="30" as="geometry" />
        </mxCell>
        <mxCell id="SP53cv1QxzxyTNkhc1Kl-30" value="Name" style="text;strokeColor=none;fillColor=none;align=left;verticalAlign=middle;spacingLeft=4;spacingRight=4;overflow=hidden;points=[[0,0.5],[1,0.5]];portConstraint=eastwest;rotatable=0;whiteSpace=wrap;html=1;labelBackgroundColor=none;fontColor=#46495D;" vertex="1" parent="SP53cv1QxzxyTNkhc1Kl-31">
          <mxGeometry y="60" width="140" height="30" as="geometry" />
        </mxCell>
        <mxCell id="SP53cv1QxzxyTNkhc1Kl-28" value="Stage_name" style="text;strokeColor=none;fillColor=none;align=left;verticalAlign=middle;spacingLeft=4;spacingRight=4;overflow=hidden;points=[[0,0.5],[1,0.5]];portConstraint=eastwest;rotatable=0;whiteSpace=wrap;html=1;labelBackgroundColor=none;fontColor=#46495D;" vertex="1" parent="SP53cv1QxzxyTNkhc1Kl-31">
          <mxGeometry y="90" width="140" height="30" as="geometry" />
        </mxCell>
        <mxCell id="SP53cv1QxzxyTNkhc1Kl-32" value="DOB" style="text;strokeColor=none;fillColor=none;align=left;verticalAlign=middle;spacingLeft=4;spacingRight=4;overflow=hidden;points=[[0,0.5],[1,0.5]];portConstraint=eastwest;rotatable=0;whiteSpace=wrap;html=1;labelBackgroundColor=none;fontColor=#46495D;" vertex="1" parent="SP53cv1QxzxyTNkhc1Kl-31">
          <mxGeometry y="120" width="140" height="30" as="geometry" />
        </mxCell>
        <mxCell id="VnvgGpq_WmmBBipv7G0Y-3" value="Music_genre" style="text;strokeColor=none;fillColor=none;align=left;verticalAlign=middle;spacingLeft=4;spacingRight=4;overflow=hidden;points=[[0,0.5],[1,0.5]];portConstraint=eastwest;rotatable=0;whiteSpace=wrap;html=1;labelBackgroundColor=none;fontColor=#46495D;" vertex="1" parent="SP53cv1QxzxyTNkhc1Kl-31">
          <mxGeometry y="150" width="140" height="30" as="geometry" />
        </mxCell>
        <mxCell id="VnvgGpq_WmmBBipv7G0Y-4" value="&amp;nbsp; &amp;nbsp; Music_sub&lt;span style=&quot;background-color: transparent; color: light-dark(rgb(70, 73, 93), rgb(170, 173, 190));&quot;&gt;genre&lt;/span&gt;" style="text;strokeColor=none;fillColor=none;align=left;verticalAlign=middle;spacingLeft=4;spacingRight=4;overflow=hidden;points=[[0,0.5],[1,0.5]];portConstraint=eastwest;rotatable=0;whiteSpace=wrap;html=1;labelBackgroundColor=none;fontColor=#46495D;" vertex="1" parent="SP53cv1QxzxyTNkhc1Kl-31">
          <mxGeometry y="180" width="140" height="30" as="geometry" />
        </mxCell>
        <mxCell id="VnvgGpq_WmmBBipv7G0Y-5" value="Website" style="text;strokeColor=none;fillColor=none;align=left;verticalAlign=middle;spacingLeft=4;spacingRight=4;overflow=hidden;points=[[0,0.5],[1,0.5]];portConstraint=eastwest;rotatable=0;whiteSpace=wrap;html=1;labelBackgroundColor=none;fontColor=#46495D;" vertex="1" parent="SP53cv1QxzxyTNkhc1Kl-31">
          <mxGeometry y="210" width="140" height="30" as="geometry" />
        </mxCell>
        <mxCell id="SP53cv1QxzxyTNkhc1Kl-33" value="Instagram" style="text;strokeColor=none;fillColor=none;align=left;verticalAlign=middle;spacingLeft=4;spacingRight=4;overflow=hidden;points=[[0,0.5],[1,0.5]];portConstraint=eastwest;rotatable=0;whiteSpace=wrap;html=1;labelBackgroundColor=none;fontColor=#46495D;" vertex="1" parent="SP53cv1QxzxyTNkhc1Kl-31">
          <mxGeometry y="240" width="140" height="30" as="geometry" />
        </mxCell>
        <mxCell id="SP53cv1QxzxyTNkhc1Kl-45" value="Band" style="swimlane;fontStyle=0;childLayout=stackLayout;horizontal=1;startSize=30;horizontalStack=0;resizeParent=1;resizeParentMax=0;resizeLast=0;collapsible=1;marginBottom=0;whiteSpace=wrap;html=1;labelBackgroundColor=none;fillColor=#B2C9AB;strokeColor=#788AA3;fontColor=#46495D;" vertex="1" parent="1">
          <mxGeometry x="-824" y="1502" width="140" height="270" as="geometry" />
        </mxCell>
        <mxCell id="SP53cv1QxzxyTNkhc1Kl-46" value="Band_ID" style="text;strokeColor=none;fillColor=none;align=left;verticalAlign=middle;spacingLeft=4;spacingRight=4;overflow=hidden;points=[[0,0.5],[1,0.5]];portConstraint=eastwest;rotatable=0;whiteSpace=wrap;html=1;labelBackgroundColor=none;fontColor=#46495D;" vertex="1" parent="SP53cv1QxzxyTNkhc1Kl-45">
          <mxGeometry y="30" width="140" height="30" as="geometry" />
        </mxCell>
        <mxCell id="VnvgGpq_WmmBBipv7G0Y-7" value="Members_list" style="text;strokeColor=none;fillColor=none;align=left;verticalAlign=middle;spacingLeft=4;spacingRight=4;overflow=hidden;points=[[0,0.5],[1,0.5]];portConstraint=eastwest;rotatable=0;whiteSpace=wrap;html=1;labelBackgroundColor=none;fontColor=#46495D;" vertex="1" parent="SP53cv1QxzxyTNkhc1Kl-45">
          <mxGeometry y="60" width="140" height="30" as="geometry" />
        </mxCell>
        <mxCell id="SP53cv1QxzxyTNkhc1Kl-47" value="Name" style="text;strokeColor=none;fillColor=none;align=left;verticalAlign=middle;spacingLeft=4;spacingRight=4;overflow=hidden;points=[[0,0.5],[1,0.5]];portConstraint=eastwest;rotatable=0;whiteSpace=wrap;html=1;labelBackgroundColor=none;fontColor=#46495D;" vertex="1" parent="SP53cv1QxzxyTNkhc1Kl-45">
          <mxGeometry y="90" width="140" height="30" as="geometry" />
        </mxCell>
        <mxCell id="SP53cv1QxzxyTNkhc1Kl-48" value="Formation_Date" style="text;strokeColor=none;fillColor=none;align=left;verticalAlign=middle;spacingLeft=4;spacingRight=4;overflow=hidden;points=[[0,0.5],[1,0.5]];portConstraint=eastwest;rotatable=0;whiteSpace=wrap;html=1;labelBackgroundColor=none;fontColor=#46495D;" vertex="1" parent="SP53cv1QxzxyTNkhc1Kl-45">
          <mxGeometry y="120" width="140" height="30" as="geometry" />
        </mxCell>
        <mxCell id="VnvgGpq_WmmBBipv7G0Y-8" value="Music_genre" style="text;strokeColor=none;fillColor=none;align=left;verticalAlign=middle;spacingLeft=4;spacingRight=4;overflow=hidden;points=[[0,0.5],[1,0.5]];portConstraint=eastwest;rotatable=0;whiteSpace=wrap;html=1;labelBackgroundColor=none;fontColor=#46495D;" vertex="1" parent="SP53cv1QxzxyTNkhc1Kl-45">
          <mxGeometry y="150" width="140" height="30" as="geometry" />
        </mxCell>
        <mxCell id="VnvgGpq_WmmBBipv7G0Y-9" value="&amp;nbsp; &amp;nbsp;Music_subgenre" style="text;strokeColor=none;fillColor=none;align=left;verticalAlign=middle;spacingLeft=4;spacingRight=4;overflow=hidden;points=[[0,0.5],[1,0.5]];portConstraint=eastwest;rotatable=0;whiteSpace=wrap;html=1;labelBackgroundColor=none;fontColor=#46495D;" vertex="1" parent="SP53cv1QxzxyTNkhc1Kl-45">
          <mxGeometry y="180" width="140" height="30" as="geometry" />
        </mxCell>
        <mxCell id="VnvgGpq_WmmBBipv7G0Y-6" value="Website" style="text;strokeColor=none;fillColor=none;align=left;verticalAlign=middle;spacingLeft=4;spacingRight=4;overflow=hidden;points=[[0,0.5],[1,0.5]];portConstraint=eastwest;rotatable=0;whiteSpace=wrap;html=1;labelBackgroundColor=none;fontColor=#46495D;" vertex="1" parent="SP53cv1QxzxyTNkhc1Kl-45">
          <mxGeometry y="210" width="140" height="30" as="geometry" />
        </mxCell>
        <mxCell id="SP53cv1QxzxyTNkhc1Kl-55" value="Instagram" style="text;strokeColor=none;fillColor=none;align=left;verticalAlign=middle;spacingLeft=4;spacingRight=4;overflow=hidden;points=[[0,0.5],[1,0.5]];portConstraint=eastwest;rotatable=0;whiteSpace=wrap;html=1;labelBackgroundColor=none;fontColor=#46495D;" vertex="1" parent="SP53cv1QxzxyTNkhc1Kl-45">
          <mxGeometry y="240" width="140" height="30" as="geometry" />
        </mxCell>
        <mxCell id="SP53cv1QxzxyTNkhc1Kl-56" value="Staff" style="swimlane;fontStyle=0;childLayout=stackLayout;horizontal=1;startSize=30;horizontalStack=0;resizeParent=1;resizeParentMax=0;resizeLast=0;collapsible=1;marginBottom=0;whiteSpace=wrap;html=1;labelBackgroundColor=none;fillColor=#B2C9AB;strokeColor=#788AA3;fontColor=#46495D;" vertex="1" parent="1">
          <mxGeometry x="-529" y="913" width="140" height="180" as="geometry" />
        </mxCell>
        <mxCell id="SP53cv1QxzxyTNkhc1Kl-57" value="Staff_ID" style="text;strokeColor=none;fillColor=none;align=left;verticalAlign=middle;spacingLeft=4;spacingRight=4;overflow=hidden;points=[[0,0.5],[1,0.5]];portConstraint=eastwest;rotatable=0;whiteSpace=wrap;html=1;labelBackgroundColor=none;fontColor=#46495D;" vertex="1" parent="SP53cv1QxzxyTNkhc1Kl-56">
          <mxGeometry y="30" width="140" height="30" as="geometry" />
        </mxCell>
        <mxCell id="SP53cv1QxzxyTNkhc1Kl-58" value="Name" style="text;strokeColor=none;fillColor=none;align=left;verticalAlign=middle;spacingLeft=4;spacingRight=4;overflow=hidden;points=[[0,0.5],[1,0.5]];portConstraint=eastwest;rotatable=0;whiteSpace=wrap;html=1;labelBackgroundColor=none;fontColor=#46495D;" vertex="1" parent="SP53cv1QxzxyTNkhc1Kl-56">
          <mxGeometry y="60" width="140" height="30" as="geometry" />
        </mxCell>
        <mxCell id="SP53cv1QxzxyTNkhc1Kl-59" value="Age" style="text;strokeColor=none;fillColor=none;align=left;verticalAlign=middle;spacingLeft=4;spacingRight=4;overflow=hidden;points=[[0,0.5],[1,0.5]];portConstraint=eastwest;rotatable=0;whiteSpace=wrap;html=1;labelBackgroundColor=none;fontColor=#46495D;" vertex="1" parent="SP53cv1QxzxyTNkhc1Kl-56">
          <mxGeometry y="90" width="140" height="30" as="geometry" />
        </mxCell>
        <mxCell id="SP53cv1QxzxyTNkhc1Kl-81" value="Role" style="text;strokeColor=none;fillColor=none;align=left;verticalAlign=middle;spacingLeft=4;spacingRight=4;overflow=hidden;points=[[0,0.5],[1,0.5]];portConstraint=eastwest;rotatable=0;whiteSpace=wrap;html=1;labelBackgroundColor=none;fontColor=#46495D;" vertex="1" parent="SP53cv1QxzxyTNkhc1Kl-56">
          <mxGeometry y="120" width="140" height="30" as="geometry" />
        </mxCell>
        <mxCell id="SP53cv1QxzxyTNkhc1Kl-82" value="Experience" style="text;strokeColor=none;fillColor=none;align=left;verticalAlign=middle;spacingLeft=4;spacingRight=4;overflow=hidden;points=[[0,0.5],[1,0.5]];portConstraint=eastwest;rotatable=0;whiteSpace=wrap;html=1;labelBackgroundColor=none;fontColor=#46495D;" vertex="1" parent="SP53cv1QxzxyTNkhc1Kl-56">
          <mxGeometry y="150" width="140" height="30" as="geometry" />
        </mxCell>
        <mxCell id="SP53cv1QxzxyTNkhc1Kl-64" value="Ticket" style="swimlane;fontStyle=0;childLayout=stackLayout;horizontal=1;startSize=30;horizontalStack=0;resizeParent=1;resizeParentMax=0;resizeLast=0;collapsible=1;marginBottom=0;whiteSpace=wrap;html=1;labelBackgroundColor=none;fillColor=#B2C9AB;strokeColor=#788AA3;fontColor=#46495D;" vertex="1" parent="1">
          <mxGeometry x="-1961" y="747" width="140" height="300" as="geometry" />
        </mxCell>
        <mxCell id="SP53cv1QxzxyTNkhc1Kl-65" value="Ticket_ID" style="text;strokeColor=none;fillColor=none;align=left;verticalAlign=middle;spacingLeft=4;spacingRight=4;overflow=hidden;points=[[0,0.5],[1,0.5]];portConstraint=eastwest;rotatable=0;whiteSpace=wrap;html=1;labelBackgroundColor=none;fontColor=#46495D;" vertex="1" parent="SP53cv1QxzxyTNkhc1Kl-64">
          <mxGeometry y="30" width="140" height="30" as="geometry" />
        </mxCell>
        <mxCell id="VnvgGpq_WmmBBipv7G0Y-20" value="Owner" style="text;strokeColor=none;fillColor=none;align=left;verticalAlign=middle;spacingLeft=4;spacingRight=4;overflow=hidden;points=[[0,0.5],[1,0.5]];portConstraint=eastwest;rotatable=0;whiteSpace=wrap;html=1;labelBackgroundColor=none;fontColor=#46495D;" vertex="1" parent="SP53cv1QxzxyTNkhc1Kl-64">
          <mxGeometry y="60" width="140" height="30" as="geometry" />
        </mxCell>
        <mxCell id="VnvgGpq_WmmBBipv7G0Y-19" value="Event_desc" style="text;strokeColor=none;fillColor=none;align=left;verticalAlign=middle;spacingLeft=4;spacingRight=4;overflow=hidden;points=[[0,0.5],[1,0.5]];portConstraint=eastwest;rotatable=0;whiteSpace=wrap;html=1;labelBackgroundColor=none;fontColor=#46495D;" vertex="1" parent="SP53cv1QxzxyTNkhc1Kl-64">
          <mxGeometry y="90" width="140" height="30" as="geometry" />
        </mxCell>
        <mxCell id="SP53cv1QxzxyTNkhc1Kl-66" value="Category" style="text;strokeColor=none;fillColor=none;align=left;verticalAlign=middle;spacingLeft=4;spacingRight=4;overflow=hidden;points=[[0,0.5],[1,0.5]];portConstraint=eastwest;rotatable=0;whiteSpace=wrap;html=1;labelBackgroundColor=none;fontColor=#46495D;" vertex="1" parent="SP53cv1QxzxyTNkhc1Kl-64">
          <mxGeometry y="120" width="140" height="30" as="geometry" />
        </mxCell>
        <mxCell id="SP53cv1QxzxyTNkhc1Kl-67" value="Purchase_date" style="text;strokeColor=none;fillColor=none;align=left;verticalAlign=middle;spacingLeft=4;spacingRight=4;overflow=hidden;points=[[0,0.5],[1,0.5]];portConstraint=eastwest;rotatable=0;whiteSpace=wrap;html=1;labelBackgroundColor=none;fontColor=#46495D;" vertex="1" parent="SP53cv1QxzxyTNkhc1Kl-64">
          <mxGeometry y="150" width="140" height="30" as="geometry" />
        </mxCell>
        <mxCell id="SP53cv1QxzxyTNkhc1Kl-73" value="Price" style="text;strokeColor=none;fillColor=none;align=left;verticalAlign=middle;spacingLeft=4;spacingRight=4;overflow=hidden;points=[[0,0.5],[1,0.5]];portConstraint=eastwest;rotatable=0;whiteSpace=wrap;html=1;labelBackgroundColor=none;fontColor=#46495D;" vertex="1" parent="SP53cv1QxzxyTNkhc1Kl-64">
          <mxGeometry y="180" width="140" height="30" as="geometry" />
        </mxCell>
        <mxCell id="SP53cv1QxzxyTNkhc1Kl-74" value="Payment_method" style="text;strokeColor=none;fillColor=none;align=left;verticalAlign=middle;spacingLeft=4;spacingRight=4;overflow=hidden;points=[[0,0.5],[1,0.5]];portConstraint=eastwest;rotatable=0;whiteSpace=wrap;html=1;labelBackgroundColor=none;fontColor=#46495D;" vertex="1" parent="SP53cv1QxzxyTNkhc1Kl-64">
          <mxGeometry y="210" width="140" height="30" as="geometry" />
        </mxCell>
        <mxCell id="SP53cv1QxzxyTNkhc1Kl-75" value="EAN_code" style="text;strokeColor=none;fillColor=none;align=left;verticalAlign=middle;spacingLeft=4;spacingRight=4;overflow=hidden;points=[[0,0.5],[1,0.5]];portConstraint=eastwest;rotatable=0;whiteSpace=wrap;html=1;labelBackgroundColor=none;fontColor=#46495D;" vertex="1" parent="SP53cv1QxzxyTNkhc1Kl-64">
          <mxGeometry y="240" width="140" height="30" as="geometry" />
        </mxCell>
        <mxCell id="SP53cv1QxzxyTNkhc1Kl-80" value="Used" style="text;strokeColor=none;fillColor=none;align=left;verticalAlign=middle;spacingLeft=4;spacingRight=4;overflow=hidden;points=[[0,0.5],[1,0.5]];portConstraint=eastwest;rotatable=0;whiteSpace=wrap;html=1;labelBackgroundColor=none;fontColor=#46495D;" vertex="1" parent="SP53cv1QxzxyTNkhc1Kl-64">
          <mxGeometry y="270" width="140" height="30" as="geometry" />
        </mxCell>
        <mxCell id="SP53cv1QxzxyTNkhc1Kl-68" value="Visitor" style="swimlane;fontStyle=0;childLayout=stackLayout;horizontal=1;startSize=30;horizontalStack=0;resizeParent=1;resizeParentMax=0;resizeLast=0;collapsible=1;marginBottom=0;whiteSpace=wrap;html=1;labelBackgroundColor=none;fillColor=#B2C9AB;strokeColor=#788AA3;fontColor=#46495D;" vertex="1" parent="1">
          <mxGeometry x="-2682" y="928" width="140" height="150" as="geometry" />
        </mxCell>
        <mxCell id="SP53cv1QxzxyTNkhc1Kl-69" value="Vis_ID" style="text;strokeColor=none;fillColor=none;align=left;verticalAlign=middle;spacingLeft=4;spacingRight=4;overflow=hidden;points=[[0,0.5],[1,0.5]];portConstraint=eastwest;rotatable=0;whiteSpace=wrap;html=1;labelBackgroundColor=none;fontColor=#46495D;" vertex="1" parent="SP53cv1QxzxyTNkhc1Kl-68">
          <mxGeometry y="30" width="140" height="30" as="geometry" />
        </mxCell>
        <mxCell id="SP53cv1QxzxyTNkhc1Kl-70" value="Name" style="text;strokeColor=none;fillColor=none;align=left;verticalAlign=middle;spacingLeft=4;spacingRight=4;overflow=hidden;points=[[0,0.5],[1,0.5]];portConstraint=eastwest;rotatable=0;whiteSpace=wrap;html=1;labelBackgroundColor=none;fontColor=#46495D;" vertex="1" parent="SP53cv1QxzxyTNkhc1Kl-68">
          <mxGeometry y="60" width="140" height="30" as="geometry" />
        </mxCell>
        <mxCell id="SP53cv1QxzxyTNkhc1Kl-71" value="Age" style="text;strokeColor=none;fillColor=none;align=left;verticalAlign=middle;spacingLeft=4;spacingRight=4;overflow=hidden;points=[[0,0.5],[1,0.5]];portConstraint=eastwest;rotatable=0;whiteSpace=wrap;html=1;labelBackgroundColor=none;fontColor=#46495D;" vertex="1" parent="SP53cv1QxzxyTNkhc1Kl-68">
          <mxGeometry y="90" width="140" height="30" as="geometry" />
        </mxCell>
        <mxCell id="SP53cv1QxzxyTNkhc1Kl-72" value="&lt;div&gt;/*ect&lt;/div&gt;" style="text;strokeColor=none;fillColor=none;align=left;verticalAlign=middle;spacingLeft=4;spacingRight=4;overflow=hidden;points=[[0,0.5],[1,0.5]];portConstraint=eastwest;rotatable=0;whiteSpace=wrap;html=1;labelBackgroundColor=none;fontColor=#46495D;" vertex="1" parent="SP53cv1QxzxyTNkhc1Kl-68">
          <mxGeometry y="120" width="140" height="30" as="geometry" />
        </mxCell>
        <mxCell id="SP53cv1QxzxyTNkhc1Kl-86" value="" style="edgeStyle=orthogonalEdgeStyle;rounded=0;orthogonalLoop=1;jettySize=auto;html=1;endArrow=classic;startFill=0;labelBackgroundColor=none;strokeColor=#788AA3;fontColor=default;endFill=1;strokeWidth=2;" edge="1" parent="1" source="SP53cv1QxzxyTNkhc1Kl-84" target="SP53cv1QxzxyTNkhc1Kl-37">
          <mxGeometry relative="1" as="geometry" />
        </mxCell>
        <mxCell id="SP53cv1QxzxyTNkhc1Kl-84" value="Held_at" style="rhombus;whiteSpace=wrap;html=1;labelBackgroundColor=none;fillColor=#B2C9AB;strokeColor=#788AA3;fontColor=#46495D;direction=west;" vertex="1" parent="1">
          <mxGeometry x="-1065" y="493" width="120" height="80" as="geometry" />
        </mxCell>
        <mxCell id="SP53cv1QxzxyTNkhc1Kl-88" value="" style="edgeStyle=orthogonalEdgeStyle;rounded=0;orthogonalLoop=1;jettySize=auto;html=1;endArrow=classic;startFill=0;labelBackgroundColor=none;strokeColor=#788AA3;fontColor=default;endFill=1;strokeWidth=2;" edge="1" parent="1" source="SP53cv1QxzxyTNkhc1Kl-87" target="SP53cv1QxzxyTNkhc1Kl-6">
          <mxGeometry relative="1" as="geometry">
            <Array as="points">
              <mxPoint x="-1204" y="625" />
              <mxPoint x="-1204" y="625" />
            </Array>
          </mxGeometry>
        </mxCell>
        <mxCell id="SP53cv1QxzxyTNkhc1Kl-87" value="Includes" style="rhombus;whiteSpace=wrap;html=1;labelBackgroundColor=none;fillColor=#B2C9AB;strokeColor=#788AA3;fontColor=#46495D;" vertex="1" parent="1">
          <mxGeometry x="-1264" y="699" width="120" height="80" as="geometry" />
        </mxCell>
        <mxCell id="SP53cv1QxzxyTNkhc1Kl-91" value="" style="edgeStyle=orthogonalEdgeStyle;rounded=0;orthogonalLoop=1;jettySize=auto;html=1;labelBackgroundColor=none;strokeColor=#788AA3;fontColor=default;endArrow=none;startFill=0;shape=link;strokeWidth=2;" edge="1" parent="1" source="SP53cv1QxzxyTNkhc1Kl-90" target="SP53cv1QxzxyTNkhc1Kl-22">
          <mxGeometry relative="1" as="geometry" />
        </mxCell>
        <mxCell id="btnhvG5vjyK7680xrveF-6" style="edgeStyle=orthogonalEdgeStyle;rounded=0;orthogonalLoop=1;jettySize=auto;html=1;fillColor=#B2C9AB;strokeColor=#788AA3;labelBackgroundColor=none;fontColor=default;strokeWidth=2;" edge="1" parent="1" source="SP53cv1QxzxyTNkhc1Kl-90" target="btnhvG5vjyK7680xrveF-4">
          <mxGeometry relative="1" as="geometry" />
        </mxCell>
        <mxCell id="SP53cv1QxzxyTNkhc1Kl-90" value="Happens" style="rhombus;whiteSpace=wrap;html=1;labelBackgroundColor=none;fillColor=#B2C9AB;strokeColor=#788AA3;fontColor=#46495D;" vertex="1" parent="1">
          <mxGeometry x="-1069" y="970.5" width="113" height="80" as="geometry" />
        </mxCell>
        <mxCell id="SP53cv1QxzxyTNkhc1Kl-97" value="" style="edgeStyle=orthogonalEdgeStyle;rounded=0;orthogonalLoop=1;jettySize=auto;html=1;labelBackgroundColor=none;strokeColor=#788AA3;fontColor=default;fillColor=#B2C9AB;endArrow=none;startFill=0;strokeWidth=2;exitX=0.87;exitY=0.436;exitDx=0;exitDy=0;exitPerimeter=0;entryX=-0.001;entryY=0.29;entryDx=0;entryDy=0;entryPerimeter=0;" edge="1" parent="1" source="SP53cv1QxzxyTNkhc1Kl-93" target="SP53cv1QxzxyTNkhc1Kl-16">
          <mxGeometry relative="1" as="geometry">
            <mxPoint x="-626.001764705882" y="828.9988235294118" as="sourcePoint" />
            <mxPoint x="-537" y="830" as="targetPoint" />
            <Array as="points">
              <mxPoint x="-632" y="829" />
            </Array>
          </mxGeometry>
        </mxCell>
        <mxCell id="SP53cv1QxzxyTNkhc1Kl-93" value="Used_at" style="rhombus;whiteSpace=wrap;html=1;labelBackgroundColor=none;fillColor=#B2C9AB;strokeColor=#788AA3;fontColor=#46495D;" vertex="1" parent="1">
          <mxGeometry x="-736" y="795.5" width="120" height="80" as="geometry" />
        </mxCell>
        <mxCell id="SP53cv1QxzxyTNkhc1Kl-99" value="" style="edgeStyle=orthogonalEdgeStyle;rounded=0;orthogonalLoop=1;jettySize=auto;html=1;labelBackgroundColor=none;strokeColor=#788AA3;fontColor=default;strokeWidth=2;" edge="1" parent="1" source="SP53cv1QxzxyTNkhc1Kl-98" target="SP53cv1QxzxyTNkhc1Kl-40">
          <mxGeometry relative="1" as="geometry" />
        </mxCell>
        <mxCell id="SP53cv1QxzxyTNkhc1Kl-100" value="" style="edgeStyle=orthogonalEdgeStyle;rounded=0;orthogonalLoop=1;jettySize=auto;html=1;labelBackgroundColor=none;strokeColor=#788AA3;fontColor=default;endArrow=none;startFill=0;shape=link;strokeWidth=2;" edge="1" parent="1" source="SP53cv1QxzxyTNkhc1Kl-98" target="SP53cv1QxzxyTNkhc1Kl-24">
          <mxGeometry relative="1" as="geometry" />
        </mxCell>
        <mxCell id="btnhvG5vjyK7680xrveF-12" style="edgeStyle=orthogonalEdgeStyle;rounded=0;orthogonalLoop=1;jettySize=auto;html=1;entryX=1;entryY=0.5;entryDx=0;entryDy=0;shape=link;fillColor=#B2C9AB;strokeColor=#788AA3;labelBackgroundColor=none;fontColor=default;" edge="1" parent="1" source="SP53cv1QxzxyTNkhc1Kl-98" target="SP53cv1QxzxyTNkhc1Kl-40">
          <mxGeometry relative="1" as="geometry" />
        </mxCell>
        <mxCell id="SP53cv1QxzxyTNkhc1Kl-98" value="Includes" style="rhombus;whiteSpace=wrap;html=1;labelBackgroundColor=none;fillColor=#B2C9AB;strokeColor=#788AA3;fontColor=#46495D;" vertex="1" parent="1">
          <mxGeometry x="-1168" y="1149" width="120" height="80" as="geometry" />
        </mxCell>
        <mxCell id="SP53cv1QxzxyTNkhc1Kl-106" value="" style="edgeStyle=orthogonalEdgeStyle;rounded=0;orthogonalLoop=1;jettySize=auto;html=1;labelBackgroundColor=none;strokeColor=#788AA3;fontColor=default;endArrow=classic;startFill=0;endFill=1;" edge="1" parent="1" source="SP53cv1QxzxyTNkhc1Kl-104" target="SP53cv1QxzxyTNkhc1Kl-42">
          <mxGeometry relative="1" as="geometry" />
        </mxCell>
        <mxCell id="btnhvG5vjyK7680xrveF-13" style="edgeStyle=orthogonalEdgeStyle;rounded=0;orthogonalLoop=1;jettySize=auto;html=1;entryX=1;entryY=0.5;entryDx=0;entryDy=0;shape=link;fillColor=#B2C9AB;strokeColor=#788AA3;labelBackgroundColor=none;fontColor=default;strokeWidth=2;" edge="1" parent="1" source="SP53cv1QxzxyTNkhc1Kl-104" target="SP53cv1QxzxyTNkhc1Kl-42">
          <mxGeometry relative="1" as="geometry" />
        </mxCell>
        <mxCell id="SP53cv1QxzxyTNkhc1Kl-104" value="performance_artist" style="rhombus;whiteSpace=wrap;html=1;labelBackgroundColor=none;fillColor=#B2C9AB;strokeColor=#788AA3;fontColor=#46495D;" vertex="1" parent="1">
          <mxGeometry x="-1038" y="1209" width="120" height="80" as="geometry" />
        </mxCell>
        <mxCell id="SP53cv1QxzxyTNkhc1Kl-108" value="" style="edgeStyle=orthogonalEdgeStyle;rounded=0;orthogonalLoop=1;jettySize=auto;html=1;labelBackgroundColor=none;strokeColor=#788AA3;fontColor=default;endArrow=none;startFill=0;" edge="1" parent="1" source="SP53cv1QxzxyTNkhc1Kl-107" target="SP53cv1QxzxyTNkhc1Kl-33">
          <mxGeometry relative="1" as="geometry" />
        </mxCell>
        <mxCell id="SP53cv1QxzxyTNkhc1Kl-109" value="" style="edgeStyle=orthogonalEdgeStyle;rounded=0;orthogonalLoop=1;jettySize=auto;html=1;labelBackgroundColor=none;strokeColor=#788AA3;fontColor=default;endArrow=none;startFill=0;shape=link;" edge="1" parent="1" source="SP53cv1QxzxyTNkhc1Kl-107" target="SP53cv1QxzxyTNkhc1Kl-47">
          <mxGeometry relative="1" as="geometry" />
        </mxCell>
        <mxCell id="SP53cv1QxzxyTNkhc1Kl-107" value="Is_member_of" style="rhombus;whiteSpace=wrap;html=1;labelBackgroundColor=none;fillColor=#B2C9AB;strokeColor=#788AA3;fontColor=#46495D;" vertex="1" parent="1">
          <mxGeometry x="-529" y="1428" width="120" height="80" as="geometry" />
        </mxCell>
        <mxCell id="SP53cv1QxzxyTNkhc1Kl-111" value="" style="rounded=0;orthogonalLoop=1;jettySize=auto;html=1;edgeStyle=orthogonalEdgeStyle;labelBackgroundColor=none;strokeColor=#788AA3;fontColor=default;endArrow=none;startFill=0;strokeWidth=2;exitX=1;exitY=0.5;exitDx=0;exitDy=0;" edge="1" parent="1" source="SP53cv1QxzxyTNkhc1Kl-110" target="SP53cv1QxzxyTNkhc1Kl-56">
          <mxGeometry relative="1" as="geometry" />
        </mxCell>
        <mxCell id="btnhvG5vjyK7680xrveF-9" style="edgeStyle=orthogonalEdgeStyle;rounded=0;orthogonalLoop=1;jettySize=auto;html=1;fillColor=#B2C9AB;strokeColor=#788AA3;endArrow=none;startFill=0;shape=link;strokeWidth=2;labelBackgroundColor=none;fontColor=default;" edge="1" parent="1" source="SP53cv1QxzxyTNkhc1Kl-110" target="SP53cv1QxzxyTNkhc1Kl-11">
          <mxGeometry relative="1" as="geometry">
            <mxPoint x="-786" y="821.9999999999998" as="targetPoint" />
          </mxGeometry>
        </mxCell>
        <mxCell id="SP53cv1QxzxyTNkhc1Kl-110" value="Works" style="rhombus;whiteSpace=wrap;html=1;labelBackgroundColor=none;fillColor=#B2C9AB;strokeColor=#788AA3;fontColor=#46495D;" vertex="1" parent="1">
          <mxGeometry x="-739" y="962.5" width="120" height="81" as="geometry" />
        </mxCell>
        <mxCell id="SP53cv1QxzxyTNkhc1Kl-116" value="" style="edgeStyle=orthogonalEdgeStyle;rounded=0;orthogonalLoop=1;jettySize=auto;html=1;labelBackgroundColor=none;strokeColor=#788AA3;fontColor=default;entryX=0.992;entryY=0.75;entryDx=0;entryDy=0;entryPerimeter=0;strokeWidth=2;" edge="1" parent="1" source="SP53cv1QxzxyTNkhc1Kl-115" target="SP53cv1QxzxyTNkhc1Kl-73">
          <mxGeometry relative="1" as="geometry" />
        </mxCell>
        <mxCell id="SP53cv1QxzxyTNkhc1Kl-115" value="for" style="rhombus;whiteSpace=wrap;html=1;labelBackgroundColor=none;fillColor=#B2C9AB;strokeColor=#788AA3;fontColor=#46495D;" vertex="1" parent="1">
          <mxGeometry x="-1677" y="910" width="120" height="80" as="geometry" />
        </mxCell>
        <mxCell id="SP53cv1QxzxyTNkhc1Kl-121" value="" style="rounded=0;orthogonalLoop=1;jettySize=auto;html=1;endArrow=none;startFill=0;startArrow=none;edgeStyle=orthogonalEdgeStyle;labelBackgroundColor=none;strokeColor=#788AA3;fontColor=default;shape=link;entryX=0;entryY=0.5;entryDx=0;entryDy=0;strokeWidth=2;" edge="1" parent="1" source="SP53cv1QxzxyTNkhc1Kl-119" target="SP53cv1QxzxyTNkhc1Kl-74">
          <mxGeometry relative="1" as="geometry">
            <mxPoint x="-2008" y="960" as="targetPoint" />
            <Array as="points">
              <mxPoint x="-2075" y="972" />
              <mxPoint x="-2075" y="972" />
            </Array>
          </mxGeometry>
        </mxCell>
        <mxCell id="J5THLiPRRWOgvJuLg79K-11" style="edgeStyle=orthogonalEdgeStyle;rounded=0;orthogonalLoop=1;jettySize=auto;html=1;entryX=1;entryY=0.5;entryDx=0;entryDy=0;labelBackgroundColor=none;strokeColor=#788AA3;fontColor=default;strokeWidth=2;" edge="1" parent="1" source="SP53cv1QxzxyTNkhc1Kl-119" target="SP53cv1QxzxyTNkhc1Kl-69">
          <mxGeometry relative="1" as="geometry" />
        </mxCell>
        <mxCell id="SP53cv1QxzxyTNkhc1Kl-119" value="Buys" style="rhombus;whiteSpace=wrap;html=1;labelBackgroundColor=none;fillColor=#B2C9AB;strokeColor=#788AA3;fontColor=#46495D;" vertex="1" parent="1">
          <mxGeometry x="-2317" y="932" width="120" height="80" as="geometry" />
        </mxCell>
        <mxCell id="SP53cv1QxzxyTNkhc1Kl-123" value="Resale_Queue" style="swimlane;fontStyle=0;childLayout=stackLayout;horizontal=1;startSize=30;horizontalStack=0;resizeParent=1;resizeParentMax=0;resizeLast=0;collapsible=1;marginBottom=0;whiteSpace=wrap;html=1;labelBackgroundColor=none;fillColor=#B2C9AB;strokeColor=#788AA3;fontColor=#46495D;" vertex="1" parent="1">
          <mxGeometry x="-2107" y="527" width="140" height="90" as="geometry" />
        </mxCell>
        <mxCell id="SP53cv1QxzxyTNkhc1Kl-126" value="Ticket_ID" style="text;strokeColor=none;fillColor=none;align=left;verticalAlign=middle;spacingLeft=4;spacingRight=4;overflow=hidden;points=[[0,0.5],[1,0.5]];portConstraint=eastwest;rotatable=0;whiteSpace=wrap;html=1;labelBackgroundColor=none;fontColor=#46495D;" vertex="1" parent="SP53cv1QxzxyTNkhc1Kl-123">
          <mxGeometry y="30" width="140" height="30" as="geometry" />
        </mxCell>
        <mxCell id="SP53cv1QxzxyTNkhc1Kl-127" value="Available" style="text;strokeColor=none;fillColor=none;align=left;verticalAlign=middle;spacingLeft=4;spacingRight=4;overflow=hidden;points=[[0,0.5],[1,0.5]];portConstraint=eastwest;rotatable=0;whiteSpace=wrap;html=1;labelBackgroundColor=none;fontColor=#46495D;" vertex="1" parent="SP53cv1QxzxyTNkhc1Kl-123">
          <mxGeometry y="60" width="140" height="30" as="geometry" />
        </mxCell>
        <mxCell id="SP53cv1QxzxyTNkhc1Kl-76" value="Evaluation" style="swimlane;fontStyle=0;childLayout=stackLayout;horizontal=1;startSize=30;horizontalStack=0;resizeParent=1;resizeParentMax=0;resizeLast=0;collapsible=1;marginBottom=0;whiteSpace=wrap;html=1;labelBackgroundColor=none;fillColor=#B2C9AB;strokeColor=#788AA3;fontColor=#46495D;" vertex="1" parent="1">
          <mxGeometry x="-1999" y="1234" width="140" height="210" as="geometry" />
        </mxCell>
        <mxCell id="SP53cv1QxzxyTNkhc1Kl-77" value="Evaluation_ID" style="text;strokeColor=none;fillColor=none;align=left;verticalAlign=middle;spacingLeft=4;spacingRight=4;overflow=hidden;points=[[0,0.5],[1,0.5]];portConstraint=eastwest;rotatable=0;whiteSpace=wrap;html=1;labelBackgroundColor=none;fontColor=#46495D;" vertex="1" parent="SP53cv1QxzxyTNkhc1Kl-76">
          <mxGeometry y="30" width="140" height="30" as="geometry" />
        </mxCell>
        <mxCell id="SP53cv1QxzxyTNkhc1Kl-78" value="Artist" style="text;strokeColor=none;fillColor=none;align=left;verticalAlign=middle;spacingLeft=4;spacingRight=4;overflow=hidden;points=[[0,0.5],[1,0.5]];portConstraint=eastwest;rotatable=0;whiteSpace=wrap;html=1;labelBackgroundColor=none;fontColor=#46495D;" vertex="1" parent="SP53cv1QxzxyTNkhc1Kl-76">
          <mxGeometry y="60" width="140" height="30" as="geometry" />
        </mxCell>
        <mxCell id="VnvgGpq_WmmBBipv7G0Y-37" value="Sound_lighting" style="text;strokeColor=none;fillColor=none;align=left;verticalAlign=middle;spacingLeft=4;spacingRight=4;overflow=hidden;points=[[0,0.5],[1,0.5]];portConstraint=eastwest;rotatable=0;whiteSpace=wrap;html=1;labelBackgroundColor=none;fontColor=#46495D;" vertex="1" parent="SP53cv1QxzxyTNkhc1Kl-76">
          <mxGeometry y="90" width="140" height="30" as="geometry" />
        </mxCell>
        <mxCell id="VnvgGpq_WmmBBipv7G0Y-38" value="Stage_Presence" style="text;strokeColor=none;fillColor=none;align=left;verticalAlign=middle;spacingLeft=4;spacingRight=4;overflow=hidden;points=[[0,0.5],[1,0.5]];portConstraint=eastwest;rotatable=0;whiteSpace=wrap;html=1;labelBackgroundColor=none;fontColor=#46495D;" vertex="1" parent="SP53cv1QxzxyTNkhc1Kl-76">
          <mxGeometry y="120" width="140" height="30" as="geometry" />
        </mxCell>
        <mxCell id="VnvgGpq_WmmBBipv7G0Y-39" value="Organization" style="text;strokeColor=none;fillColor=none;align=left;verticalAlign=middle;spacingLeft=4;spacingRight=4;overflow=hidden;points=[[0,0.5],[1,0.5]];portConstraint=eastwest;rotatable=0;whiteSpace=wrap;html=1;labelBackgroundColor=none;fontColor=#46495D;" vertex="1" parent="SP53cv1QxzxyTNkhc1Kl-76">
          <mxGeometry y="150" width="140" height="30" as="geometry" />
        </mxCell>
        <mxCell id="VnvgGpq_WmmBBipv7G0Y-40" value="Overall" style="text;strokeColor=none;fillColor=none;align=left;verticalAlign=middle;spacingLeft=4;spacingRight=4;overflow=hidden;points=[[0,0.5],[1,0.5]];portConstraint=eastwest;rotatable=0;whiteSpace=wrap;html=1;labelBackgroundColor=none;fontColor=#46495D;" vertex="1" parent="SP53cv1QxzxyTNkhc1Kl-76">
          <mxGeometry y="180" width="140" height="30" as="geometry" />
        </mxCell>
        <mxCell id="SP53cv1QxzxyTNkhc1Kl-134" value="" style="edgeStyle=orthogonalEdgeStyle;rounded=0;orthogonalLoop=1;jettySize=auto;html=1;labelBackgroundColor=none;strokeColor=#788AA3;fontColor=default;endArrow=classic;startFill=0;startArrow=none;endFill=1;strokeWidth=2;" edge="1" parent="1" source="SP53cv1QxzxyTNkhc1Kl-133" target="SP53cv1QxzxyTNkhc1Kl-80">
          <mxGeometry relative="1" as="geometry" />
        </mxCell>
        <mxCell id="SP53cv1QxzxyTNkhc1Kl-135" value="" style="edgeStyle=orthogonalEdgeStyle;rounded=0;orthogonalLoop=1;jettySize=auto;html=1;labelBackgroundColor=none;strokeColor=#788AA3;fontColor=default;endArrow=none;startFill=0;endFill=1;shape=link;entryX=0;entryY=0.5;entryDx=0;entryDy=0;strokeWidth=2;" edge="1" parent="1" source="SP53cv1QxzxyTNkhc1Kl-133" target="SP53cv1QxzxyTNkhc1Kl-77">
          <mxGeometry relative="1" as="geometry" />
        </mxCell>
        <mxCell id="SP53cv1QxzxyTNkhc1Kl-133" value="used" style="rhombus;whiteSpace=wrap;html=1;labelBackgroundColor=none;fillColor=#B2C9AB;strokeColor=#788AA3;fontColor=#46495D;" vertex="1" parent="1">
          <mxGeometry x="-2154" y="1101" width="120" height="80" as="geometry" />
        </mxCell>
        <mxCell id="SP53cv1QxzxyTNkhc1Kl-137" value="" style="edgeStyle=orthogonalEdgeStyle;rounded=0;orthogonalLoop=1;jettySize=auto;html=1;labelBackgroundColor=none;strokeColor=#788AA3;fontColor=default;endArrow=none;startFill=0;" edge="1" parent="1" source="SP53cv1QxzxyTNkhc1Kl-136" target="SP53cv1QxzxyTNkhc1Kl-43">
          <mxGeometry relative="1" as="geometry" />
        </mxCell>
        <mxCell id="SP53cv1QxzxyTNkhc1Kl-138" value="" style="edgeStyle=orthogonalEdgeStyle;rounded=0;orthogonalLoop=1;jettySize=auto;html=1;labelBackgroundColor=none;strokeColor=#788AA3;fontColor=default;endArrow=none;startFill=0;shape=link;entryX=1;entryY=0.5;entryDx=0;entryDy=0;strokeWidth=2;" edge="1" parent="1" source="SP53cv1QxzxyTNkhc1Kl-136" target="SP53cv1QxzxyTNkhc1Kl-77">
          <mxGeometry relative="1" as="geometry" />
        </mxCell>
        <mxCell id="SP53cv1QxzxyTNkhc1Kl-136" value="for" style="rhombus;whiteSpace=wrap;html=1;labelBackgroundColor=none;fillColor=#B2C9AB;strokeColor=#788AA3;fontColor=#46495D;" vertex="1" parent="1">
          <mxGeometry x="-1679" y="1239" width="120" height="80" as="geometry" />
        </mxCell>
        <mxCell id="pOaLTytXoAbnQz3LnziU-16" value="" style="edgeStyle=orthogonalEdgeStyle;rounded=0;orthogonalLoop=1;jettySize=auto;html=1;fillColor=#B2C9AB;strokeColor=#788AA3;labelBackgroundColor=none;fontColor=default;" edge="1" parent="1" source="SP53cv1QxzxyTNkhc1Kl-136" target="SP53cv1QxzxyTNkhc1Kl-43">
          <mxGeometry relative="1" as="geometry" />
        </mxCell>
        <mxCell id="btnhvG5vjyK7680xrveF-10" style="edgeStyle=orthogonalEdgeStyle;rounded=0;orthogonalLoop=1;jettySize=auto;html=1;entryX=0.726;entryY=1.022;entryDx=0;entryDy=0;entryPerimeter=0;shape=link;fillColor=#B2C9AB;strokeColor=#788AA3;labelBackgroundColor=none;fontColor=default;" edge="1" parent="1" source="SP53cv1QxzxyTNkhc1Kl-87" target="SP53cv1QxzxyTNkhc1Kl-6">
          <mxGeometry relative="1" as="geometry" />
        </mxCell>
        <mxCell id="cqDVJU0vCWFaIyc4hlk9-10" value="performer" style="swimlane;fontStyle=0;childLayout=stackLayout;horizontal=1;startSize=30;horizontalStack=0;resizeParent=1;resizeParentMax=0;resizeLast=0;collapsible=1;marginBottom=0;whiteSpace=wrap;html=1;strokeColor=#788AA3;fontColor=#46495D;fillColor=#B2C9AB;labelBackgroundColor=none;" vertex="1" parent="1">
          <mxGeometry x="-297" y="1340" width="140" height="330" as="geometry" />
        </mxCell>
        <mxCell id="cqDVJU0vCWFaIyc4hlk9-11" value="performer_id" style="text;strokeColor=none;fillColor=none;align=left;verticalAlign=middle;spacingLeft=4;spacingRight=4;overflow=hidden;points=[[0,0.5],[1,0.5]];portConstraint=eastwest;rotatable=0;whiteSpace=wrap;html=1;fontColor=#46495D;labelBackgroundColor=none;" vertex="1" parent="cqDVJU0vCWFaIyc4hlk9-10">
          <mxGeometry y="30" width="140" height="30" as="geometry" />
        </mxCell>
        <mxCell id="cqDVJU0vCWFaIyc4hlk9-12" value="Name" style="text;strokeColor=none;fillColor=none;align=left;verticalAlign=middle;spacingLeft=4;spacingRight=4;overflow=hidden;points=[[0,0.5],[1,0.5]];portConstraint=eastwest;rotatable=0;whiteSpace=wrap;html=1;fontColor=#46495D;labelBackgroundColor=none;" vertex="1" parent="cqDVJU0vCWFaIyc4hlk9-10">
          <mxGeometry y="60" width="140" height="30" as="geometry" />
        </mxCell>
        <mxCell id="VnvgGpq_WmmBBipv7G0Y-14" value="Stage_Name" style="text;strokeColor=none;fillColor=none;align=left;verticalAlign=middle;spacingLeft=4;spacingRight=4;overflow=hidden;points=[[0,0.5],[1,0.5]];portConstraint=eastwest;rotatable=0;whiteSpace=wrap;html=1;fontColor=#46495D;labelBackgroundColor=none;" vertex="1" parent="cqDVJU0vCWFaIyc4hlk9-10">
          <mxGeometry y="90" width="140" height="30" as="geometry" />
        </mxCell>
        <mxCell id="VnvgGpq_WmmBBipv7G0Y-15" value="Member_list" style="text;strokeColor=none;fillColor=none;align=left;verticalAlign=middle;spacingLeft=4;spacingRight=4;overflow=hidden;points=[[0,0.5],[1,0.5]];portConstraint=eastwest;rotatable=0;whiteSpace=wrap;html=1;fontColor=#46495D;labelBackgroundColor=none;" vertex="1" parent="cqDVJU0vCWFaIyc4hlk9-10">
          <mxGeometry y="120" width="140" height="30" as="geometry" />
        </mxCell>
        <mxCell id="VnvgGpq_WmmBBipv7G0Y-16" value="Is_Member_of" style="text;strokeColor=none;fillColor=none;align=left;verticalAlign=middle;spacingLeft=4;spacingRight=4;overflow=hidden;points=[[0,0.5],[1,0.5]];portConstraint=eastwest;rotatable=0;whiteSpace=wrap;html=1;fontColor=#46495D;labelBackgroundColor=none;" vertex="1" parent="cqDVJU0vCWFaIyc4hlk9-10">
          <mxGeometry y="150" width="140" height="30" as="geometry" />
        </mxCell>
        <mxCell id="cqDVJU0vCWFaIyc4hlk9-13" value="DoB" style="text;strokeColor=none;fillColor=none;align=left;verticalAlign=middle;spacingLeft=4;spacingRight=4;overflow=hidden;points=[[0,0.5],[1,0.5]];portConstraint=eastwest;rotatable=0;whiteSpace=wrap;html=1;fontColor=#46495D;labelBackgroundColor=none;" vertex="1" parent="cqDVJU0vCWFaIyc4hlk9-10">
          <mxGeometry y="180" width="140" height="30" as="geometry" />
        </mxCell>
        <mxCell id="VnvgGpq_WmmBBipv7G0Y-13" value="Music_genre" style="text;strokeColor=none;fillColor=none;align=left;verticalAlign=middle;spacingLeft=4;spacingRight=4;overflow=hidden;points=[[0,0.5],[1,0.5]];portConstraint=eastwest;rotatable=0;whiteSpace=wrap;html=1;fontColor=#46495D;labelBackgroundColor=none;" vertex="1" parent="cqDVJU0vCWFaIyc4hlk9-10">
          <mxGeometry y="210" width="140" height="30" as="geometry" />
        </mxCell>
        <mxCell id="VnvgGpq_WmmBBipv7G0Y-12" value="&amp;nbsp; &amp;nbsp;Music_subgenre" style="text;strokeColor=none;fillColor=none;align=left;verticalAlign=middle;spacingLeft=4;spacingRight=4;overflow=hidden;points=[[0,0.5],[1,0.5]];portConstraint=eastwest;rotatable=0;whiteSpace=wrap;html=1;fontColor=#46495D;labelBackgroundColor=none;" vertex="1" parent="cqDVJU0vCWFaIyc4hlk9-10">
          <mxGeometry y="240" width="140" height="30" as="geometry" />
        </mxCell>
        <mxCell id="VnvgGpq_WmmBBipv7G0Y-11" value="Website" style="text;strokeColor=none;fillColor=none;align=left;verticalAlign=middle;spacingLeft=4;spacingRight=4;overflow=hidden;points=[[0,0.5],[1,0.5]];portConstraint=eastwest;rotatable=0;whiteSpace=wrap;html=1;fontColor=#46495D;labelBackgroundColor=none;" vertex="1" parent="cqDVJU0vCWFaIyc4hlk9-10">
          <mxGeometry y="270" width="140" height="30" as="geometry" />
        </mxCell>
        <mxCell id="VnvgGpq_WmmBBipv7G0Y-10" value="Instagram" style="text;strokeColor=none;fillColor=none;align=left;verticalAlign=middle;spacingLeft=4;spacingRight=4;overflow=hidden;points=[[0,0.5],[1,0.5]];portConstraint=eastwest;rotatable=0;whiteSpace=wrap;html=1;fontColor=#46495D;labelBackgroundColor=none;" vertex="1" parent="cqDVJU0vCWFaIyc4hlk9-10">
          <mxGeometry y="300" width="140" height="30" as="geometry" />
        </mxCell>
        <mxCell id="HEQW6fZJlT7YWTPAoVsE-3" value="performance_&lt;span style=&quot;background-color: transparent; color: light-dark(rgb(70, 73, 93), rgb(170, 173, 190));&quot;&gt;band&lt;/span&gt;" style="rhombus;whiteSpace=wrap;html=1;labelBackgroundColor=none;fillColor=#B2C9AB;strokeColor=#788AA3;fontColor=#46495D;" vertex="1" parent="1">
          <mxGeometry x="-1479" y="1422" width="120" height="80" as="geometry" />
        </mxCell>
        <mxCell id="HEQW6fZJlT7YWTPAoVsE-5" style="edgeStyle=orthogonalEdgeStyle;rounded=0;orthogonalLoop=1;jettySize=auto;html=1;entryX=0.386;entryY=1.003;entryDx=0;entryDy=0;entryPerimeter=0;endArrow=none;startFill=0;labelBackgroundColor=none;strokeColor=#788AA3;fontColor=default;" edge="1" parent="1" source="HEQW6fZJlT7YWTPAoVsE-3" target="SP53cv1QxzxyTNkhc1Kl-43">
          <mxGeometry relative="1" as="geometry" />
        </mxCell>
        <mxCell id="HEQW6fZJlT7YWTPAoVsE-6" style="edgeStyle=orthogonalEdgeStyle;rounded=0;orthogonalLoop=1;jettySize=auto;html=1;endArrow=none;startFill=0;labelBackgroundColor=none;strokeColor=#788AA3;fontColor=default;" edge="1" parent="1" source="HEQW6fZJlT7YWTPAoVsE-3" target="SP53cv1QxzxyTNkhc1Kl-47">
          <mxGeometry relative="1" as="geometry" />
        </mxCell>
        <mxCell id="J5THLiPRRWOgvJuLg79K-2" value="members_list" style="rhombus;whiteSpace=wrap;html=1;labelBackgroundColor=none;fillColor=#B2C9AB;strokeColor=#788AA3;fontColor=#46495D;" vertex="1" parent="1">
          <mxGeometry x="-1043" y="1422" width="120" height="80" as="geometry" />
        </mxCell>
        <mxCell id="J5THLiPRRWOgvJuLg79K-3" value="Εναλλακτικά" style="text;strokeColor=none;align=center;fillColor=none;html=1;verticalAlign=middle;whiteSpace=wrap;rounded=0;labelBackgroundColor=none;fontColor=#46495D;" vertex="1" parent="1">
          <mxGeometry x="-320" y="1266" width="186" height="88" as="geometry" />
        </mxCell>
        <mxCell id="HEQW6fZJlT7YWTPAoVsE-8" style="edgeStyle=orthogonalEdgeStyle;rounded=0;orthogonalLoop=1;jettySize=auto;html=1;entryX=0;entryY=0.5;entryDx=0;entryDy=0;strokeColor=#788AA3;fontColor=default;fillColor=#B2C9AB;endArrow=none;startFill=0;strokeWidth=2;labelBackgroundColor=none;" edge="1" parent="1" source="SP53cv1QxzxyTNkhc1Kl-115" target="VnvgGpq_WmmBBipv7G0Y-17">
          <mxGeometry relative="1" as="geometry" />
        </mxCell>
        <mxCell id="VnvgGpq_WmmBBipv7G0Y-25" value="Buyers" style="swimlane;fontStyle=0;childLayout=stackLayout;horizontal=1;startSize=30;horizontalStack=0;resizeParent=1;resizeParentMax=0;resizeLast=0;collapsible=1;marginBottom=0;whiteSpace=wrap;html=1;labelBackgroundColor=none;fillColor=#B2C9AB;strokeColor=#788AA3;fontColor=#46495D;" vertex="1" parent="1">
          <mxGeometry x="-2445" y="642" width="140" height="180" as="geometry" />
        </mxCell>
        <mxCell id="VnvgGpq_WmmBBipv7G0Y-29" value="Buyer_ID" style="text;strokeColor=none;fillColor=none;align=left;verticalAlign=middle;spacingLeft=4;spacingRight=4;overflow=hidden;points=[[0,0.5],[1,0.5]];portConstraint=eastwest;rotatable=0;whiteSpace=wrap;html=1;labelBackgroundColor=none;fontColor=#46495D;" vertex="1" parent="VnvgGpq_WmmBBipv7G0Y-25">
          <mxGeometry y="30" width="140" height="30" as="geometry" />
        </mxCell>
        <mxCell id="VnvgGpq_WmmBBipv7G0Y-27" value="Ticket_Category" style="text;strokeColor=none;fillColor=none;align=left;verticalAlign=middle;spacingLeft=4;spacingRight=4;overflow=hidden;points=[[0,0.5],[1,0.5]];portConstraint=eastwest;rotatable=0;whiteSpace=wrap;html=1;labelBackgroundColor=none;fontColor=#46495D;" vertex="1" parent="VnvgGpq_WmmBBipv7G0Y-25">
          <mxGeometry y="60" width="140" height="30" as="geometry" />
        </mxCell>
        <mxCell id="VnvgGpq_WmmBBipv7G0Y-28" value="Event" style="text;strokeColor=none;fillColor=none;align=left;verticalAlign=middle;spacingLeft=4;spacingRight=4;overflow=hidden;points=[[0,0.5],[1,0.5]];portConstraint=eastwest;rotatable=0;whiteSpace=wrap;html=1;labelBackgroundColor=none;fontColor=#46495D;" vertex="1" parent="VnvgGpq_WmmBBipv7G0Y-25">
          <mxGeometry y="90" width="140" height="30" as="geometry" />
        </mxCell>
        <mxCell id="VnvgGpq_WmmBBipv7G0Y-26" value="Ticket_ID" style="text;strokeColor=none;fillColor=none;align=left;verticalAlign=middle;spacingLeft=4;spacingRight=4;overflow=hidden;points=[[0,0.5],[1,0.5]];portConstraint=eastwest;rotatable=0;whiteSpace=wrap;html=1;labelBackgroundColor=none;fontColor=#46495D;" vertex="1" parent="VnvgGpq_WmmBBipv7G0Y-25">
          <mxGeometry y="120" width="140" height="30" as="geometry" />
        </mxCell>
        <mxCell id="VnvgGpq_WmmBBipv7G0Y-30" value="Date_of_interest" style="text;strokeColor=none;fillColor=none;align=left;verticalAlign=middle;spacingLeft=4;spacingRight=4;overflow=hidden;points=[[0,0.5],[1,0.5]];portConstraint=eastwest;rotatable=0;whiteSpace=wrap;html=1;labelBackgroundColor=none;fontColor=#46495D;" vertex="1" parent="VnvgGpq_WmmBBipv7G0Y-25">
          <mxGeometry y="150" width="140" height="30" as="geometry" />
        </mxCell>
        <mxCell id="VnvgGpq_WmmBBipv7G0Y-31" value="Sellers" style="swimlane;fontStyle=0;childLayout=stackLayout;horizontal=1;startSize=30;horizontalStack=0;resizeParent=1;resizeParentMax=0;resizeLast=0;collapsible=1;marginBottom=0;whiteSpace=wrap;html=1;labelBackgroundColor=none;fillColor=#B2C9AB;strokeColor=#788AA3;fontColor=#46495D;" vertex="1" parent="1">
          <mxGeometry x="-2815" y="406" width="140" height="180" as="geometry" />
        </mxCell>
        <mxCell id="VnvgGpq_WmmBBipv7G0Y-32" value="Seller_ID" style="text;strokeColor=none;fillColor=none;align=left;verticalAlign=middle;spacingLeft=4;spacingRight=4;overflow=hidden;points=[[0,0.5],[1,0.5]];portConstraint=eastwest;rotatable=0;whiteSpace=wrap;html=1;labelBackgroundColor=none;fontColor=#46495D;" vertex="1" parent="VnvgGpq_WmmBBipv7G0Y-31">
          <mxGeometry y="30" width="140" height="30" as="geometry" />
        </mxCell>
        <mxCell id="VnvgGpq_WmmBBipv7G0Y-33" value="Ticket_ID" style="text;strokeColor=none;fillColor=none;align=left;verticalAlign=middle;spacingLeft=4;spacingRight=4;overflow=hidden;points=[[0,0.5],[1,0.5]];portConstraint=eastwest;rotatable=0;whiteSpace=wrap;html=1;labelBackgroundColor=none;fontColor=#46495D;" vertex="1" parent="VnvgGpq_WmmBBipv7G0Y-31">
          <mxGeometry y="60" width="140" height="30" as="geometry" />
        </mxCell>
        <mxCell id="VnvgGpq_WmmBBipv7G0Y-55" value="TIcket_Category" style="text;strokeColor=none;fillColor=none;align=left;verticalAlign=middle;spacingLeft=4;spacingRight=4;overflow=hidden;points=[[0,0.5],[1,0.5]];portConstraint=eastwest;rotatable=0;whiteSpace=wrap;html=1;labelBackgroundColor=none;fontColor=#46495D;" vertex="1" parent="VnvgGpq_WmmBBipv7G0Y-31">
          <mxGeometry y="90" width="140" height="30" as="geometry" />
        </mxCell>
        <mxCell id="VnvgGpq_WmmBBipv7G0Y-56" value="Event" style="text;strokeColor=none;fillColor=none;align=left;verticalAlign=middle;spacingLeft=4;spacingRight=4;overflow=hidden;points=[[0,0.5],[1,0.5]];portConstraint=eastwest;rotatable=0;whiteSpace=wrap;html=1;labelBackgroundColor=none;fontColor=#46495D;" vertex="1" parent="VnvgGpq_WmmBBipv7G0Y-31">
          <mxGeometry y="120" width="140" height="30" as="geometry" />
        </mxCell>
        <mxCell id="VnvgGpq_WmmBBipv7G0Y-34" value="Date_of_interest" style="text;strokeColor=none;fillColor=none;align=left;verticalAlign=middle;spacingLeft=4;spacingRight=4;overflow=hidden;points=[[0,0.5],[1,0.5]];portConstraint=eastwest;rotatable=0;whiteSpace=wrap;html=1;labelBackgroundColor=none;fontColor=#46495D;" vertex="1" parent="VnvgGpq_WmmBBipv7G0Y-31">
          <mxGeometry y="150" width="140" height="30" as="geometry" />
        </mxCell>
        <mxCell id="J5THLiPRRWOgvJuLg79K-12" value="" style="edgeStyle=orthogonalEdgeStyle;rounded=0;orthogonalLoop=1;jettySize=auto;html=1;entryX=0;entryY=0.5;entryDx=0;entryDy=0;labelBackgroundColor=none;strokeColor=#788AA3;fontColor=default;endArrow=none;startFill=1;startArrow=classic;strokeWidth=2;" edge="1" parent="1" source="VnvgGpq_WmmBBipv7G0Y-28" target="VnvgGpq_WmmBBipv7G0Y-41">
          <mxGeometry relative="1" as="geometry">
            <mxPoint x="-2418" y="587" as="sourcePoint" />
            <mxPoint x="-2104" y="587" as="targetPoint" />
          </mxGeometry>
        </mxCell>
        <mxCell id="7BPIpzFIY16F5iTArCX1-1" style="edgeStyle=orthogonalEdgeStyle;rounded=0;orthogonalLoop=1;jettySize=auto;html=1;strokeColor=#788AA3;fontColor=default;fillColor=#B2C9AB;labelBackgroundColor=none;strokeWidth=2;" edge="1" parent="1" source="VnvgGpq_WmmBBipv7G0Y-41" target="SP53cv1QxzxyTNkhc1Kl-127">
          <mxGeometry relative="1" as="geometry">
            <mxPoint x="-2105" y="602" as="targetPoint" />
          </mxGeometry>
        </mxCell>
        <mxCell id="VnvgGpq_WmmBBipv7G0Y-41" value="Buys" style="rhombus;whiteSpace=wrap;html=1;labelBackgroundColor=none;fillColor=#B2C9AB;strokeColor=#788AA3;fontColor=#46495D;" vertex="1" parent="1">
          <mxGeometry x="-2244" y="707" width="120" height="80" as="geometry" />
        </mxCell>
        <mxCell id="J5THLiPRRWOgvJuLg79K-13" value="" style="edgeStyle=orthogonalEdgeStyle;rounded=0;orthogonalLoop=1;jettySize=auto;html=1;labelBackgroundColor=none;strokeColor=#788AA3;fontColor=default;endArrow=none;startFill=1;startArrow=classic;strokeWidth=2;shape=link;" edge="1" parent="1" source="VnvgGpq_WmmBBipv7G0Y-34" target="VnvgGpq_WmmBBipv7G0Y-42">
          <mxGeometry relative="1" as="geometry">
            <mxPoint x="-2423" y="818" as="sourcePoint" />
            <mxPoint x="-2101" y="629" as="targetPoint" />
          </mxGeometry>
        </mxCell>
        <mxCell id="VnvgGpq_WmmBBipv7G0Y-43" value="Becomes" style="rhombus;whiteSpace=wrap;html=1;labelBackgroundColor=none;fillColor=#B2C9AB;strokeColor=#788AA3;fontColor=#46495D;" vertex="1" parent="1">
          <mxGeometry x="-2672" y="692" width="120" height="80" as="geometry" />
        </mxCell>
        <mxCell id="VnvgGpq_WmmBBipv7G0Y-52" style="edgeStyle=orthogonalEdgeStyle;rounded=0;orthogonalLoop=1;jettySize=auto;html=1;labelBackgroundColor=none;strokeColor=#788AA3;fontColor=default;strokeWidth=2;" edge="1" parent="1" source="VnvgGpq_WmmBBipv7G0Y-42" target="SP53cv1QxzxyTNkhc1Kl-123">
          <mxGeometry relative="1" as="geometry" />
        </mxCell>
        <mxCell id="7BPIpzFIY16F5iTArCX1-5" style="edgeStyle=orthogonalEdgeStyle;rounded=0;orthogonalLoop=1;jettySize=auto;html=1;entryX=1;entryY=0.5;entryDx=0;entryDy=0;strokeColor=#788AA3;fontColor=#46495D;fillColor=#B2C9AB;strokeWidth=2;exitX=0;exitY=0.5;exitDx=0;exitDy=0;" edge="1" parent="1" source="VnvgGpq_WmmBBipv7G0Y-42" target="VnvgGpq_WmmBBipv7G0Y-34">
          <mxGeometry relative="1" as="geometry" />
        </mxCell>
        <mxCell id="VnvgGpq_WmmBBipv7G0Y-42" value="For_sale" style="rhombus;whiteSpace=wrap;html=1;labelBackgroundColor=none;fillColor=#B2C9AB;strokeColor=#788AA3;fontColor=#46495D;" vertex="1" parent="1">
          <mxGeometry x="-2440" y="532" width="120" height="80" as="geometry" />
        </mxCell>
        <mxCell id="VnvgGpq_WmmBBipv7G0Y-51" style="edgeStyle=orthogonalEdgeStyle;rounded=0;orthogonalLoop=1;jettySize=auto;html=1;entryX=0;entryY=0.5;entryDx=0;entryDy=0;labelBackgroundColor=none;strokeColor=#788AA3;fontColor=default;strokeWidth=2;" edge="1" parent="1" source="VnvgGpq_WmmBBipv7G0Y-44" target="SP53cv1QxzxyTNkhc1Kl-69">
          <mxGeometry relative="1" as="geometry" />
        </mxCell>
        <mxCell id="7BPIpzFIY16F5iTArCX1-2" style="edgeStyle=orthogonalEdgeStyle;rounded=0;orthogonalLoop=1;jettySize=auto;html=1;strokeColor=#788AA3;fontColor=default;fillColor=#B2C9AB;shape=link;exitX=0.5;exitY=0;exitDx=0;exitDy=0;entryX=0;entryY=0.5;entryDx=0;entryDy=0;labelBackgroundColor=none;" edge="1" parent="1" source="VnvgGpq_WmmBBipv7G0Y-44" target="VnvgGpq_WmmBBipv7G0Y-32">
          <mxGeometry relative="1" as="geometry">
            <mxPoint x="-2910" y="623" as="targetPoint" />
            <mxPoint x="-2846" y="758" as="sourcePoint" />
          </mxGeometry>
        </mxCell>
        <mxCell id="7BPIpzFIY16F5iTArCX1-4" style="edgeStyle=orthogonalEdgeStyle;rounded=0;orthogonalLoop=1;jettySize=auto;html=1;entryX=0;entryY=0.5;entryDx=0;entryDy=0;strokeColor=#788AA3;fontColor=default;fillColor=#B2C9AB;strokeWidth=2;labelBackgroundColor=none;" edge="1" parent="1" source="VnvgGpq_WmmBBipv7G0Y-44" target="VnvgGpq_WmmBBipv7G0Y-32">
          <mxGeometry relative="1" as="geometry" />
        </mxCell>
        <mxCell id="VnvgGpq_WmmBBipv7G0Y-44" value="Becomes" style="rhombus;whiteSpace=wrap;html=1;labelBackgroundColor=none;fillColor=#B2C9AB;strokeColor=#788AA3;fontColor=#46495D;" vertex="1" parent="1">
          <mxGeometry x="-2955" y="753" width="120" height="86" as="geometry" />
        </mxCell>
        <mxCell id="J5THLiPRRWOgvJuLg79K-19" value="Weak entity set" style="whiteSpace=wrap;html=1;shape=mxgraph.basic.roundRectCallout;dx=30;dy=15;size=5;boundedLbl=1;labelBackgroundColor=none;fillColor=#B2C9AB;strokeColor=#788AA3;fontColor=#46495D;" vertex="1" parent="1">
          <mxGeometry x="-2714" y="357" width="123" height="60" as="geometry" />
        </mxCell>
        <mxCell id="VnvgGpq_WmmBBipv7G0Y-46" value="" style="edgeStyle=orthogonalEdgeStyle;rounded=0;orthogonalLoop=1;jettySize=auto;html=1;labelBackgroundColor=none;strokeColor=#788AA3;fontColor=default;strokeWidth=2;" edge="1" parent="1" source="VnvgGpq_WmmBBipv7G0Y-43" target="VnvgGpq_WmmBBipv7G0Y-25">
          <mxGeometry relative="1" as="geometry" />
        </mxCell>
        <mxCell id="VnvgGpq_WmmBBipv7G0Y-47" style="edgeStyle=orthogonalEdgeStyle;rounded=0;orthogonalLoop=1;jettySize=auto;html=1;labelBackgroundColor=none;strokeColor=#788AA3;fontColor=default;strokeWidth=2;" edge="1" parent="1" source="VnvgGpq_WmmBBipv7G0Y-43" target="SP53cv1QxzxyTNkhc1Kl-68">
          <mxGeometry relative="1" as="geometry" />
        </mxCell>
        <mxCell id="DzQrWhS_oCLWxZ5l_Nli-1" value="" style="curved=1;endArrow=classic;html=1;rounded=0;" edge="1" parent="1">
          <mxGeometry width="50" height="50" relative="1" as="geometry">
            <mxPoint x="-1225" y="1330" as="sourcePoint" />
            <mxPoint x="-1329" y="1254" as="targetPoint" />
            <Array as="points">
              <mxPoint x="-1235" y="1357" />
              <mxPoint x="-1285" y="1307" />
            </Array>
          </mxGeometry>
        </mxCell>
        <mxCell id="DzQrWhS_oCLWxZ5l_Nli-2" value="needed?" style="text;html=1;align=center;verticalAlign=middle;whiteSpace=wrap;rounded=0;" vertex="1" parent="1">
          <mxGeometry x="-1245" y="1304" width="60" height="30" as="geometry" />
        </mxCell>
        <mxCell id="DzQrWhS_oCLWxZ5l_Nli-3" value="" style="curved=1;endArrow=classic;html=1;rounded=0;" edge="1" parent="1">
          <mxGeometry width="50" height="50" relative="1" as="geometry">
            <mxPoint x="-1538" y="1515" as="sourcePoint" />
            <mxPoint x="-1488" y="1465" as="targetPoint" />
            <Array as="points">
              <mxPoint x="-1488" y="1515" />
              <mxPoint x="-1538" y="1465" />
            </Array>
          </mxGeometry>
        </mxCell>
        <mxCell id="DzQrWhS_oCLWxZ5l_Nli-4" value="bohthos eipe perito" style="text;html=1;align=center;verticalAlign=middle;whiteSpace=wrap;rounded=0;" vertex="1" parent="1">
          <mxGeometry x="-1609" y="1502" width="60" height="30" as="geometry" />
        </mxCell>
        <mxCell id="DzQrWhS_oCLWxZ5l_Nli-6" value="" style="curved=1;endArrow=classic;html=1;rounded=0;" edge="1" parent="1">
          <mxGeometry width="50" height="50" relative="1" as="geometry">
            <mxPoint x="-2376" y="532" as="sourcePoint" />
            <mxPoint x="-1884" y="743" as="targetPoint" />
            <Array as="points">
              <mxPoint x="-2326" y="532" />
              <mxPoint x="-2376" y="482" />
              <mxPoint x="-2120" y="231" />
              <mxPoint x="-2074" y="201" />
              <mxPoint x="-1809" y="386" />
            </Array>
          </mxGeometry>
        </mxCell>
        <mxCell id="DzQrWhS_oCLWxZ5l_Nli-7" value="enas seller mporei na poulaei polla tickets" style="text;html=1;align=center;verticalAlign=middle;whiteSpace=wrap;rounded=0;" vertex="1" parent="1">
          <mxGeometry x="-1898" y="292" width="60" height="30" as="geometry" />
        </mxCell>
        <mxCell id="DzQrWhS_oCLWxZ5l_Nli-9" value="" style="curved=1;endArrow=classic;html=1;rounded=0;entryX=0.195;entryY=0.062;entryDx=0;entryDy=0;entryPerimeter=0;" edge="1" parent="1" target="VnvgGpq_WmmBBipv7G0Y-20">
          <mxGeometry width="50" height="50" relative="1" as="geometry">
            <mxPoint x="-1704" y="772" as="sourcePoint" />
            <mxPoint x="-1688" y="807" as="targetPoint" />
            <Array as="points">
              <mxPoint x="-1688" y="857" />
              <mxPoint x="-1738" y="807" />
            </Array>
          </mxGeometry>
        </mxCell>
        <mxCell id="DzQrWhS_oCLWxZ5l_Nli-10" value="redundunt" style="text;html=1;align=center;verticalAlign=middle;whiteSpace=wrap;rounded=0;" vertex="1" parent="1">
          <mxGeometry x="-1737" y="739" width="60" height="30" as="geometry" />
        </mxCell>
      </root>
    </mxGraphModel>
  </diagram>
</mxfile>
